<svg width="528" height="390" viewBox="0 0 528 390" fill="none" xmlns="http://www.w3.org/2000/svg">
<path d="M2.08395 380.172H75.1748L75.1748 258.063H2.08395L2.08395 380.172Z" fill="#B2B2B2"/>
<path d="M74.8847 380.172H147.976L147.976 258.063H74.8847L74.8847 380.172Z" fill="#D1D1D1"/>
<path d="M81.4512 142.595L90.2542 184.745L62.7596 188.285C62.7596 188.285 60.3759 144.483 62.7596 144.247C65.1433 144.034 81.4512 142.595 81.4512 142.595Z" fill="#A8754B"/>
<path d="M55.7261 100.256C55.7261 100.256 83.1971 104.126 88.1296 145.923C88.1296 145.923 79.3738 155.339 68.2108 152.436L55.7261 100.256Z" fill="#FFD686"/>
<path d="M43.8085 98.8157C43.8085 98.8157 17.0455 96.1724 7.62885 115.029C-1.81136 133.886 25.7069 153.522 16.2666 196.734L75.5984 193.595V155.481C75.5984 155.481 86.4074 139.715 71.0907 122.817C71.0907 122.817 70.1703 97.1401 43.8085 98.8157Z" fill="#FFD686"/>
<path d="M132.074 202.847C132.074 202.847 151.308 195.72 156.477 214.388C161.645 233.032 183.074 354.929 183.074 354.929H165.893L155.792 306.477C155.792 306.477 141.538 290.594 137.171 256.869L77.2261 249.718L132.074 202.847Z" fill="#B5845B"/>
<path d="M92.7557 247.452C92.7557 247.452 102.951 247.169 121.053 241.41C139.154 235.628 152.064 241.74 144.936 262.131C137.809 282.499 101.795 376.901 101.795 376.901L88.1536 372.818L99.9302 311.692C99.9302 311.692 102.691 281.366 115.483 263.594C115.483 263.594 88.5784 264.94 79.3742 263.524C70.2172 262.131 92.7557 247.452 92.7557 247.452Z" fill="#A8754B"/>
<path d="M16.2657 196.735C16.2657 196.735 -5.49401 224.088 20.679 250.945C20.679 250.945 34.1549 266.639 93.5574 264.185C93.5574 264.185 109.134 211.603 142.269 197.466L73.6858 188.286L16.2657 196.735Z" fill="#0C2C40"/>
<path d="M45.2718 28.9819C45.2718 28.9819 52.352 0.165683 27.831 0.000479484C9.68219 -0.117523 4.27767 21.5713 26.533 36.0856L45.2718 28.9819Z" fill="#190D08"/>
<path d="M25.7063 41.3251C25.7063 41.3251 21.2694 29.9969 33.9193 24.262C46.5692 18.5271 50.6049 32.0973 50.6049 32.0973L25.7063 41.3251Z" fill="#FD6C75"/>
<path d="M73.7574 67.0966C73.7574 67.0966 92.0242 56.2875 72.2705 34.575C59.9275 21.0047 38.3094 21.7599 26.2731 35.2122C14.2368 48.6645 25.5887 72.383 25.5887 72.383L33.7781 58.7656L40.9526 48.1925L51.2188 44.086L59.2666 44.6524L66.0872 45.5256L71.5861 47.8385L73.7574 67.0966Z" fill="#27160C"/>
<path d="M58.8371 75.8307L38.3071 73.1938L34.1519 105.546L54.6819 108.182L58.8371 75.8307Z" fill="#B5845B"/>
<path d="M36.1611 82.8149C36.1611 82.8149 38.3796 94.5916 47.8434 96.9753C50.7935 97.7069 54.0031 96.8572 55.7968 94.4264C56.2924 93.7655 56.6464 93.0104 56.7644 92.1607C57.2128 88.7623 48.2446 82.8149 48.2446 82.8149H36.1611Z" fill="#A8754B"/>
<path d="M50.6286 91.1932L49.5666 91.0516C37.7899 89.5412 29.4589 78.7557 30.9693 66.979L32.173 57.6332C33.6834 45.8566 44.4688 37.5256 56.2455 39.036L57.3075 39.1776C69.0842 40.688 77.4152 51.4735 75.9047 63.2502L74.7011 72.596C73.1907 84.3726 62.4052 92.7036 50.6286 91.1932Z" fill="#B5845B"/>
<path d="M33.2825 64.6425C33.2825 64.6425 48.0565 59.8279 47.6788 43.2368C47.6788 43.2368 48.6229 30.8701 35.6898 42.3164C22.7567 53.7626 33.2825 64.6425 33.2825 64.6425Z" fill="#27160C"/>
<path d="M36.5395 69.1737C36.0203 73.1386 32.4094 75.9471 28.421 75.4278C24.4561 74.9086 21.6476 71.2978 22.1668 67.3329C22.686 63.368 26.2969 60.5595 30.2854 61.0787C34.2503 61.5743 37.0587 65.2088 36.5395 69.1737Z" fill="#B5845B"/>
<path d="M41.2831 56.3347L40.6223 61.574C39.1119 68.961 35.9966 66.7189 34.8638 63.5329L41.2831 56.3347Z" fill="#27160C"/>
<path d="M78.171 53.6683C78.171 53.6683 63.0903 64.9729 40.9766 48.2166C25.7307 36.6759 48.7884 32.5222 48.7884 32.5222L70.2884 36.9591L78.171 53.6683Z" fill="#27160C"/>
<path d="M34.1792 105.518C34.1792 105.518 47.0887 128.552 56.2457 121.472C66.1343 113.826 43.8082 98.8157 43.8082 98.8157L34.1792 105.518Z" fill="#B5845B"/>
<path d="M39.8899 152.437C39.8899 152.437 47.8669 167.14 53.3186 178.68L111.47 175.329C111.47 175.329 123.011 165.889 132.05 173.866L123.129 184.58L50.3214 200.7C47.5365 201.313 44.6336 200.511 42.5804 198.576C36.1375 192.487 22.1187 178.303 15.3218 163.836L39.8899 152.437Z" fill="#B5845B"/>
<path d="M201.294 129.756H129.832C127.472 129.756 125.442 131.408 124.97 133.698L111.518 196.829C110.857 199.921 113.217 202.847 116.379 202.847H189.046C191.429 202.847 193.482 201.148 193.931 198.812L206.203 135.68C206.77 132.612 204.409 129.756 201.294 129.756Z" fill="#B2B2B2"/>
<path d="M205.4 129.756H133.938C131.578 129.756 129.548 131.408 129.076 133.698L115.624 196.829C114.963 199.921 117.323 202.847 120.485 202.847H193.151C195.535 202.847 197.588 201.148 198.037 198.812L210.309 135.68C210.875 132.612 208.539 129.756 205.4 129.756Z" fill="#D1D1D1"/>
<path d="M113.406 197.466H64.5762C63.0894 197.466 61.8857 198.67 61.8857 200.157C61.8857 201.643 63.0894 202.847 64.5762 202.847H114.35L113.406 197.466Z" fill="#B2B2B2"/>
<path d="M161.15 164.662C161.15 168.957 164.643 172.45 168.938 172.45C173.233 172.45 176.726 168.957 176.726 164.662C176.726 160.366 173.233 156.873 168.938 156.873C164.643 156.873 161.15 160.343 161.15 164.662Z" fill="white"/>
<path d="M15.322 105.848C14.3544 106.273 -17.6715 122.015 13.8352 170.797C13.8352 170.797 33.9665 171.128 45.6251 156.141C45.6487 156.141 41.7782 94.237 15.322 105.848Z" fill="#FFD686"/>
<path d="M84.4479 370.151C84.8727 368.877 86.2651 368.405 87.2092 369.231C89.05 370.859 92.3541 372.866 97.2158 372.37C102.29 371.874 104.178 368.877 104.91 366.729C105.287 365.597 106.373 365.03 107.34 365.502L138.068 380.937C139.933 381.881 141.396 383.627 142.104 385.799C142.788 387.852 141.42 390.047 139.484 390L86.4067 388.536C84.3063 388.489 82.7251 386.436 82.8903 384.052L83.7635 372.346C83.7871 372.157 83.8107 371.969 83.8815 371.78L84.4479 370.151Z" fill="#FD6C75"/>
<path d="M161.928 349.949C162.023 348.604 163.226 347.778 164.336 348.344C166.53 349.43 170.236 350.492 174.814 348.746C179.558 346.928 180.62 343.553 180.762 341.288C180.832 340.108 181.729 339.258 182.791 339.471L216.493 346.338C218.546 346.763 220.411 348.061 221.685 349.973C222.889 351.766 222.133 354.245 220.269 354.693L168.655 367.178C166.625 367.673 164.548 366.116 164.1 363.756L161.881 352.239C161.834 352.05 161.834 351.861 161.834 351.649L161.928 349.949Z" fill="#FD6C75"/>
<path d="M508.936 254.582H429.927V379.946H508.936V254.582Z" fill="#B2B2B2"/>
<path d="M430.236 254.581H351.228V379.946H430.236V254.581Z" fill="#D1D1D1"/>
<path d="M388.843 102.555L385.474 169.942L369.637 219.358H398.15L412.959 176.781L417.587 128.394L388.843 102.555Z" fill="#F7EBE7"/>
<path d="M388.047 338.089L393.78 364.803L374.523 367.091L369.046 340.789L388.047 338.089Z" fill="#FCC9A7"/>
<path d="M394.937 362.386C394.448 360.947 392.905 360.432 391.851 361.358C389.794 363.183 386.092 365.42 380.616 364.88C374.934 364.315 372.8 360.972 371.977 358.556C371.54 357.296 370.332 356.653 369.252 357.193L334.774 374.522C332.691 375.576 331.046 377.53 330.223 379.973C329.452 382.261 330.994 384.729 333.154 384.678L392.725 383.032C395.065 382.981 396.865 380.667 396.659 377.993L395.682 364.88C395.656 364.675 395.631 364.443 395.554 364.238L394.937 362.386Z" fill="#1F252A"/>
<path d="M387.712 208.92H343.001C343.001 208.92 315.774 207.403 314.154 229.745C312.534 252.088 354.083 316.004 360.587 350.148L397.971 347.063L371.052 254.222L438.002 254.607C442.964 254.633 447.9 253.913 452.58 252.293C465.615 247.768 485.515 241.289 474.665 205.397L387.712 208.92Z" fill="#092330"/>
<path d="M422.215 338.192L431.317 370.125L412.059 372.413L403.215 340.892L422.215 338.192Z" fill="#FCC9A7"/>
<path d="M432.474 367.708C431.986 366.268 430.443 365.754 429.389 366.679C427.332 368.505 423.63 370.742 418.153 370.202C412.471 369.636 410.337 366.294 409.515 363.877C409.077 362.617 407.869 361.974 406.789 362.514L372.311 379.843C370.229 380.897 368.583 382.851 367.761 385.294C366.989 387.582 368.532 390.05 370.692 389.999L431.291 388.353C433.631 388.302 435.431 385.988 435.225 383.314L433.194 370.202C433.168 369.996 433.143 369.765 433.066 369.559L432.474 367.708Z" fill="#1F252A"/>
<path d="M441.137 76.0735C442.14 77.0505 487.005 88.4917 487.005 88.4917L477.415 113.971L428.359 110.269L441.137 76.0735Z" fill="#F7EBE7"/>
<path d="M422.627 82.2173C422.627 82.2173 393.394 92.8872 388.843 102.554C390.411 116.207 395.219 129.345 403.138 140.58C412.856 154.361 424.863 178.041 422.652 208.919H507.163C507.163 208.919 502.612 122.043 477.596 88.6963L422.627 82.2173Z" fill="#F7EBE7"/>
<path d="M432.215 96C440.52 94.3031 445.868 86.2043 444.171 77.8998L439.208 53.6033L409.153 59.7481L414.115 84.0446C415.812 92.3491 423.911 97.6969 432.215 96Z" fill="#FCC9A7"/>
<path d="M441.265 62.0874C441.265 62.0874 438.103 81.7817 422.779 82.9644C409.358 83.9928 410.644 64.5813 410.644 64.5813L441.265 62.0874Z" fill="#F4BE9A"/>
<path d="M423.988 72.1657L426.636 71.5486C439.929 68.4634 448.207 55.1967 445.122 41.93L441.625 26.7865C438.54 13.4941 425.273 5.21533 412.007 8.3006L409.359 8.91766C396.066 12.0029 387.787 25.2696 390.873 38.5362L394.369 53.6798C397.455 66.9722 410.721 75.251 423.988 72.1657Z" fill="#FCC9A7"/>
<path d="M436.792 48.2289C436.175 49.283 435.583 50.8771 435.378 53.2939C435.146 56.3534 433.603 59.2587 431.032 60.9556C423.653 65.8406 418.023 53.4739 407.122 55.6593C407.122 55.6593 402.854 56.302 402.005 61.0585C401.157 65.7892 395.218 57.5104 393.906 51.8541C392.595 46.1978 391.927 79.8529 418.769 76.999C418.769 76.999 432.318 76.562 441.445 62.7554C442.448 61.2385 443.039 59.4644 443.091 57.639C443.168 54.9394 442.782 50.8514 440.211 47.9204C439.311 46.8405 437.512 46.9948 436.792 48.2289Z" fill="#1C2226"/>
<path d="M436.818 40.5924C436.818 40.5924 425.223 36.7615 427.177 19.8182C427.177 19.8182 398.381 47.0714 377.041 27.0686C377.041 27.0686 386.58 24.5233 390.513 17.9928C397.687 6.08879 418.307 -10.3146 434.813 8.65985C434.813 8.65985 454.893 5.54887 449.134 36.4787L436.818 40.5924Z" fill="#1C2226"/>
<path d="M436.818 40.5927C437.923 45.3234 442.654 48.2801 447.385 47.2003C452.141 46.0947 455.072 41.364 453.992 36.6332C452.887 31.9025 448.156 28.9458 443.425 30.0256C438.669 31.1312 435.712 35.8619 436.818 40.5927Z" fill="#FCC9A7"/>
<path d="M422.163 95.0476L434.581 95.279L425.891 113.276L416.507 96.0246L422.163 95.0476Z" fill="#0C2C40"/>
<path d="M445.226 76.8694L429.234 95.5353L439.647 107.491L458.802 81.1631C458.802 81.1631 453.891 73.2699 445.226 76.8694Z" fill="#FFF7F3"/>
<path d="M422.164 95.047L412.959 105.434L406.48 89.2365C406.48 89.2365 408.177 81.9604 413.473 83.3487L422.164 95.047Z" fill="#FFF7F3"/>
<path d="M425.556 107.466C425.556 107.466 413.55 138.781 416.532 183.209L428.359 194.008L442.166 180.715L427.279 105.435L425.556 107.466Z" fill="#0C2C40"/>
<path d="M448.003 181.821L422.292 190.28L420.595 205.372L454.687 195.19L448.003 181.821Z" fill="#FCC9A7"/>
<path d="M426.123 200.256C426.123 209.075 418.976 216.248 410.131 216.248C401.312 216.248 394.139 209.1 394.139 200.256C394.139 191.437 401.287 184.264 410.131 184.264C418.95 184.264 426.123 191.411 426.123 200.256Z" fill="#FCC9A7"/>
<path d="M422.626 208.92H377.941C377.941 208.92 350.714 207.403 349.094 229.746C347.474 252.088 392.082 320.118 398.587 354.236L435.97 351.151L405.991 254.196L472.942 254.582C477.904 254.608 482.84 253.888 487.52 252.268C500.555 247.743 520.455 241.264 509.605 205.372L422.626 208.92Z" fill="#0C2C40"/>
<path d="M287.826 129.911H365.086C367.631 129.911 369.817 131.685 370.356 134.179L384.909 202.415C385.628 205.757 383.057 208.92 379.638 208.92H301.092C298.521 208.92 296.31 207.094 295.822 204.575L282.555 136.339C281.886 132.996 284.432 129.911 287.826 129.911Z" fill="#B2B2B2"/>
<path d="M283.378 129.911H360.612C363.158 129.911 365.343 131.685 365.883 134.179L380.435 202.415C381.155 205.757 378.61 208.92 375.165 208.92H296.644C294.073 208.92 291.862 207.094 291.374 204.575L278.107 136.339C277.439 132.996 279.984 129.911 283.378 129.911Z" fill="#D1D1D1"/>
<path d="M382.801 203.083H435.585C437.204 203.083 438.49 204.395 438.49 205.989C438.49 207.609 437.179 208.894 435.585 208.894H381.772L382.801 203.083Z" fill="#B2B2B2"/>
<path d="M331.2 167.628C331.2 172.282 327.446 176.036 322.793 176.036C318.139 176.036 314.385 172.256 314.385 167.628C314.385 162.975 318.165 159.221 322.793 159.221C327.446 159.221 331.2 162.975 331.2 167.628Z" fill="white"/>
<path d="M468.572 112.762L496.802 158.347L429.234 182.464L438.49 202.466C438.49 202.466 496.262 195.987 524.184 174.468C526.755 172.488 528.04 169.274 527.603 166.06C526.292 155.776 520.687 130.811 496.802 95.3305C491.942 88.1058 482.275 85.9205 474.742 90.2913C466.9 94.8163 464.149 104.843 468.572 112.762Z" fill="#F7EBE7"/>
<path d="M447.205 176.035L496.801 158.346L471.99 118.264" stroke="#EADDD8" stroke-width="0.7599" stroke-miterlimit="10" stroke-linecap="round" stroke-linejoin="round"/>
<path d="M413.627 160.943L401.415 128.702" stroke="#EADDD8" stroke-width="0.7599" stroke-miterlimit="10" stroke-linecap="round" stroke-linejoin="round"/>
<path d="M448.002 201.104C448.002 201.104 485.951 196.347 505.08 185.395" stroke="#EADDD8" stroke-width="0.7599" stroke-miterlimit="10" stroke-linecap="round" stroke-linejoin="round"/>
</svg>
