<svg width="331" height="62" viewBox="0 0 331 62" fill="none" xmlns="http://www.w3.org/2000/svg">
<path fill-rule="evenodd" clip-rule="evenodd" d="M28.0673 56.1875C43.5684 56.1875 56.1345 43.6095 56.1345 28.0938C56.1345 12.578 43.5684 0 28.0673 0C12.5661 0 0 12.578 0 28.0938C0 43.6095 12.5661 56.1875 28.0673 56.1875Z" fill="#4A68FB"/>
<path fill-rule="evenodd" clip-rule="evenodd" d="M28.0675 44.5625C37.1543 44.5625 44.5207 37.1892 44.5207 28.0938C44.5207 18.9983 37.1543 11.625 28.0675 11.625C18.9806 11.625 11.6143 18.9983 11.6143 28.0938C11.6143 37.1892 18.9806 44.5625 28.0675 44.5625Z" fill="white"/>
<path d="M68.4508 24.88C69.5548 22.984 71.2348 22.036 73.4908 22.036C75.6508 22.036 77.4988 22.852 79.0348 24.484C80.6668 26.212 81.4828 28.468 81.4828 31.252C81.4828 34.06 80.6548 36.328 78.9988 38.056C77.4628 39.688 75.6268 40.504 73.4908 40.504C71.3548 40.504 69.7948 39.868 68.8108 38.596V48.532H64.5628V22.504H68.0548L68.4508 24.88ZM72.7348 36.652C73.2388 36.652 73.7548 36.544 74.2828 36.328C74.8348 36.112 75.3268 35.776 75.7588 35.32C76.7188 34.312 77.1988 32.968 77.1988 31.288C77.1988 29.584 76.7788 28.252 75.9388 27.292C75.1228 26.332 74.1148 25.852 72.9148 25.852C71.7388 25.852 70.7668 26.2 69.9988 26.896C69.2548 27.568 68.8588 28.54 68.8108 29.812V32.944C68.8108 34.072 69.2068 34.984 69.9988 35.68C70.7428 36.328 71.6548 36.652 72.7348 36.652ZM86.8955 22.468H91.1435V40H86.8955V22.468ZM86.3915 16.852C86.3915 16.084 86.6195 15.484 87.0755 15.052C87.5315 14.596 88.1795 14.368 89.0195 14.368C89.8355 14.368 90.4715 14.596 90.9275 15.052C91.4075 15.484 91.6475 16.084 91.6475 16.852C91.6475 17.62 91.4075 18.232 90.9275 18.688C90.4715 19.12 89.8355 19.336 89.0195 19.336C88.1795 19.336 87.5315 19.12 87.0755 18.688C86.6195 18.232 86.3915 17.62 86.3915 16.852ZM102.524 25.528C103.676 23.2 105.524 22.036 108.068 22.036C110.228 22.036 111.848 22.744 112.928 24.16C114.032 25.576 114.584 27.448 114.584 29.776V40H110.336V29.776C110.336 28.48 110.024 27.508 109.4 26.86C108.776 26.188 107.9 25.852 106.772 25.852C105.644 25.852 104.672 26.356 103.856 27.364C103.064 28.372 102.644 29.884 102.596 31.9V40H98.348V22.504H102.056L102.524 25.528ZM132.982 24.592C133.582 25.36 134.026 26.248 134.314 27.256C134.626 28.264 134.782 29.188 134.782 30.028C134.782 30.868 134.734 31.624 134.638 32.296H123.334C123.382 33.712 123.73 34.864 124.378 35.752C125.026 36.64 126.01 37.084 127.33 37.084C129.082 37.084 130.126 36.316 130.462 34.78H134.746C134.458 36.532 133.654 37.912 132.334 38.92C130.966 39.976 129.298 40.504 127.33 40.504C125.026 40.504 123.094 39.664 121.534 37.984C119.926 36.232 119.122 33.988 119.122 31.252C119.122 28.444 119.926 26.188 121.534 24.484C123.07 22.852 125.002 22.036 127.33 22.036C129.754 22.036 131.638 22.888 132.982 24.592ZM127.366 25.42C126.166 25.42 125.23 25.816 124.558 26.608C123.886 27.376 123.49 28.372 123.37 29.596H130.822C130.822 27.7 130.222 26.428 129.022 25.78C128.566 25.54 128.014 25.42 127.366 25.42ZM157.109 16.636C159.749 16.636 161.801 17.284 163.265 18.58C164.753 19.852 165.497 21.688 165.497 24.088C165.497 26.464 164.753 28.3 163.265 29.596C161.801 30.868 159.749 31.504 157.109 31.504H153.149V40H148.865V16.636H157.109ZM157.109 27.796C158.429 27.796 159.425 27.448 160.097 26.752C160.769 26.056 161.105 25.168 161.105 24.088C161.105 22.984 160.769 22.084 160.097 21.388C159.425 20.668 158.429 20.308 157.109 20.308H153.149V27.796H157.109ZM176.767 22.036C177.943 22.036 179.047 22.228 180.079 22.612C181.111 22.972 181.999 23.536 182.743 24.304C184.399 25.984 185.227 28.312 185.227 31.288C185.227 34.216 184.399 36.52 182.743 38.2C181.255 39.736 179.263 40.504 176.767 40.504C174.271 40.504 172.255 39.736 170.719 38.2C169.063 36.544 168.235 34.24 168.235 31.288C168.235 28.288 169.063 25.96 170.719 24.304C172.231 22.792 174.247 22.036 176.767 22.036ZM180.979 31.252C180.979 29.404 180.619 28.024 179.899 27.112C179.179 26.176 178.171 25.708 176.875 25.708C175.603 25.708 174.559 26.176 173.743 27.112C172.927 28.024 172.519 29.404 172.519 31.252C172.519 33.1 172.879 34.492 173.599 35.428C174.343 36.34 175.351 36.796 176.623 36.796C177.895 36.796 178.939 36.34 179.755 35.428C180.571 34.492 180.979 33.1 180.979 31.252ZM190.282 15.304H194.53V40H190.282V15.304ZM201.215 15.304H205.463V40H201.215V15.304ZM214.525 34.672C214.573 36.328 215.785 37.156 218.161 37.156C219.073 37.156 219.817 36.964 220.393 36.58C220.993 36.172 221.293 35.704 221.293 35.176C221.293 34.648 221.113 34.24 220.753 33.952C220.393 33.664 219.829 33.4 219.061 33.16L215.245 31.792C212.413 30.808 210.997 29.2 210.997 26.968C210.997 25.48 211.657 24.292 212.977 23.404C214.321 22.492 216.109 22.036 218.341 22.036C220.597 22.036 222.325 22.528 223.525 23.512C224.749 24.496 225.385 25.732 225.433 27.22H221.437C221.389 26.644 221.113 26.188 220.609 25.852C220.105 25.516 219.385 25.348 218.449 25.348C217.513 25.348 216.781 25.54 216.253 25.924C215.749 26.284 215.497 26.704 215.497 27.184C215.497 28.024 216.205 28.648 217.621 29.056L221.761 30.604C223.129 31.06 224.173 31.648 224.893 32.368C225.637 33.064 226.009 33.976 226.009 35.104C226.009 36.544 225.325 37.792 223.957 38.848C222.541 39.952 220.669 40.504 218.341 40.504C216.013 40.504 214.141 40 212.725 38.992C211.309 37.96 210.589 36.52 210.565 34.672H214.525Z" fill="black"/>
</svg>
