<svg width="418" height="392" viewBox="0 0 418 392" fill="none" xmlns="http://www.w3.org/2000/svg">
<path d="M248.103 187.543V387.35" stroke="#2A272D" stroke-width="1.9882" stroke-miterlimit="10"/>
<path d="M392.632 187.543V387.35" stroke="#2A272D" stroke-width="1.9882" stroke-miterlimit="10"/>
<path d="M162.647 249.25C162.647 249.25 190.381 242.963 194.557 261.017C198.163 276.509 160.441 275.916 160.441 275.916L77.5003 276.415C77.5003 276.415 46.2552 280.021 30.8106 243.983C15.366 207.946 0.490831 113.57 0.490831 113.57C0.490831 113.57 -1.73927 100.593 9.07907 98.6949C21.7954 96.4648 24.2864 123.938 24.2864 123.938C24.2864 123.938 43.5032 240.425 71.4031 246.118C75.6972 246.996 79.1135 250.247 83.5026 250.199L162.647 249.25Z" fill="#FFEEE3"/>
<path d="M236.358 155.159L262.55 153.356C264.685 153.213 266.725 154.186 267.935 155.918L282.573 178.053L270.118 178.646L263.095 167.851C263.095 167.851 242.858 172.905 235.385 167.851L236.358 155.159Z" fill="#F2C09E"/>
<path d="M130.855 83.4402L165.849 148.469L238.564 150.794V174.708L161.768 178.077C151.614 178.528 141.982 173.664 136.288 165.242L101.342 102.491L130.855 83.4402Z" fill="#EFC375"/>
<path d="M238.564 150.77V174.684L230.451 175.04V150.509L238.564 150.77Z" fill="#F7E5DA"/>
<path d="M200.463 343.531L204.567 372.285L225.255 371.004L222.289 341.325L200.463 343.531Z" fill="#FCC9A7"/>
<path d="M199.941 369.367C200.392 368.015 202.005 367.469 203.168 368.299C205.445 369.913 209.455 371.834 215.22 371.099C221.222 370.34 223.334 367.137 224.069 364.883C224.449 363.697 225.73 363.056 226.892 363.507L264.187 378.121C266.465 378.999 268.268 380.755 269.24 382.985C270.142 385.072 268.647 387.421 266.346 387.469L203.192 388.394C200.701 388.441 198.708 386.377 198.803 383.886L199.253 371.692C199.253 371.478 199.301 371.289 199.372 371.099L199.941 369.367Z" fill="#1F252A"/>
<path d="M137.616 77.8652L143.547 87.3787C143.927 88.2802 144.093 90.4629 142.456 91.2695L140.155 92.9302L135.22 85.3859L137.616 77.8652Z" fill="#FFEEE3"/>
<path d="M126.561 87.9239L124.687 87.0224C118.518 84.0094 115.956 76.5599 118.969 70.3915L138.993 29.3958L161.222 40.2615L138.091 86.1683C135.624 91.269 131.662 90.415 126.561 87.9239Z" fill="#FCC9A7"/>
<path d="M177.806 48.3519C171.282 61.685 155.173 67.2365 141.84 60.7123C128.507 54.1881 122.955 38.103 129.479 24.7461C136.003 11.413 152.089 5.86148 165.445 12.3857C178.802 18.9099 184.33 35.0188 177.806 48.3519Z" fill="#FCC9A7"/>
<path d="M145.351 74.8755C139.017 71.7913 136.384 64.1283 139.492 57.7939L150.784 34.6626L178.02 47.972L168.815 66.8329C164.544 75.516 154.035 79.1459 145.351 74.8755Z" fill="#FCC9A7"/>
<path d="M174.485 53.4053L175.956 63.7491C176.074 65.3861 174.342 66.4537 172.824 65.7183L166.134 63.8915L174.485 53.4053Z" fill="#FCC9A7"/>
<path d="M150.902 48.2332C150.902 48.2332 160.321 48.8501 161.863 34.307C161.863 34.307 178.233 44.7458 184.9 40.594C184.9 40.594 186.94 -0.54416 152.943 0.903029C118.946 2.35022 116.289 39.0519 116.289 39.0519L135.363 56.2758L150.902 48.2332Z" fill="#1C2226"/>
<path d="M152.255 48.8266C150.475 52.5039 146.039 54.0222 142.362 52.2192C138.708 50.4161 137.166 46.0034 138.969 42.3261C140.748 38.6488 145.185 37.1304 148.862 38.9335C152.516 40.7366 154.034 45.1493 152.255 48.8266Z" fill="#FCC9A7"/>
<path d="M131.496 43.3699L126.443 55.1609C126.443 55.1609 137.546 64.0576 143.145 52.5987L135.079 50.3211L131.496 43.3699Z" fill="#1C2226"/>
<path d="M161.863 34.3073C161.863 34.3073 184.045 51.4363 192.799 37.083C199.774 25.6241 192.017 18.1984 180.819 20.0489C175.979 20.8555 173.583 17.5816 169.787 14.9956L161.863 34.3073Z" fill="#1C2226"/>
<path d="M141.935 98.6711C141.935 98.6711 141.436 88.2086 138.115 84.5788C134.794 80.949 117.095 70.9373 117.095 70.9373C117.095 70.9373 91.6389 78.3156 76.0045 107.402C63.8339 130.058 52.375 187.4 52.375 187.4L125.826 198.053C132.16 155.206 144.022 135.681 141.935 98.6711Z" fill="#FFD686"/>
<path d="M118.329 68.9211L115.268 70.2971C114.177 70.7953 113.939 72.2662 114.841 73.0729L134.248 90.3442C135.03 91.056 136.264 90.8424 136.81 89.9409L138.992 86.1687C139.396 85.457 139.23 84.5555 138.589 84.0335L120.037 69.1821C119.562 68.755 118.898 68.6601 118.329 68.9211Z" fill="#FFEEE3"/>
<path d="M228.268 159.05L254.459 157.247C256.595 157.105 258.635 158.077 259.845 159.809L273.273 178.907L260.723 180.521L255.005 171.719C255.005 171.719 234.768 176.772 227.295 171.719L228.268 159.05Z" fill="#FCC9A7"/>
<path d="M115.98 88.28L155.505 154.969L230.474 157.033V178.599L149.574 182.134C141.982 182.466 134.746 178.836 130.476 172.525L86.4673 107.331L115.98 88.28Z" fill="#FFD686"/>
<path d="M230.474 157.033V178.575L222.36 178.931V157.033H230.474Z" fill="#FFEEE3"/>
<path d="M52.3754 187.401L196.857 208.349C207.913 209.963 216.453 218.907 217.521 230.033L228.292 353.092L196.027 355.18L180.511 248.515L89.7888 250.863C65.1629 250.863 46.2782 228.99 49.8606 204.625L52.3754 187.401Z" fill="#54585A"/>
<path d="M308.457 178.077H232.254V183.012H308.457V178.077Z" fill="#2A272D"/>
<path d="M308.48 183.012L333.13 111.008L327.958 109.774L303.783 178.931L308.48 183.012Z" fill="#2A272D"/>
<path d="M144.141 74.2114C144.141 74.2114 137.284 70.1546 137.284 61.6138C137.284 61.6138 133.014 70.8663 141.721 79.0038L144.141 74.2114Z" fill="#F2C09E"/>
<path d="M31.665 392C32.8038 392 33.8477 391.217 34.1561 390.055L71.8779 241.326C75.0095 229.013 86.0414 220.401 98.7577 220.401C111.094 220.401 122.055 228.681 125.424 240.543C138.615 287.02 169.314 388.418 169.623 389.438C170.026 390.79 171.473 391.573 172.825 391.146C174.178 390.743 174.96 389.295 174.533 387.943C174.225 386.923 143.526 285.572 130.359 239.144C126.373 225.075 113.372 215.253 98.734 215.253C83.669 215.253 70.5731 225.455 66.8721 240.045L29.1502 388.797C28.7944 390.173 29.6247 391.573 31.0008 391.929C31.238 391.976 31.4515 392 31.665 392Z" fill="#1F252A"/>
<path d="M130.501 172.502L107.844 138.979" stroke="#EFC375" stroke-width="0.7847" stroke-miterlimit="10" stroke-linecap="round" stroke-linejoin="round"/>
<path d="M417.59 183.011H220.179V191.908H417.59V183.011Z" fill="#FFEEE3"/>
<path d="M248.103 213.521H392.632" stroke="#2A272D" stroke-width="1.9882" stroke-miterlimit="10"/>
<path d="M143.786 133.546L122.079 98.5527" stroke="#EFC375" stroke-width="0.7847" stroke-miterlimit="10" stroke-linecap="round" stroke-linejoin="round"/>
</svg>
